# xmcd
#
# Track frame offsets: 
#        150
#        29120
#        54247
#        80097
#        105513
#        129138
#        154454
#        177886
#        201818
#        220827
#        240967
#        267412
#        286633
#
# Disc length: 4226 seconds
#
# Revision: 0
# Processed by: cddbd v1.5.2PL0 Copyright (c) Steve Scherf et al.
# Submitted via: ExactAudioCopy v1.0b1
#
DISCID=af10800d
DTITLE=Normotone - Inward Structures
DYEAR=2011
DGENRE=Electronic
TTITLE0=Some Few Words
TTITLE1=Defections (Clouds Over Tallinu)
TTITLE2=Confessions Of A Daydreamer
TTITLE3=Isolation Is My Achievement
TTITLE4=The Unutterable Beauty
TTITLE5=These Hearts
TTITLE6=Primer
TTITLE7=Milky Skin In A Yellow Fuzzy Light
TTITLE8=Frozen Leaves
TTITLE9=Forms And Functions
TTITLE10=Black Horses Of Destruction
TTITLE11=Milky Skin In A Yellow Fuzzy Light (Remix By Polygon)
TTITLE12=The Unutterable And A Half (One Droid And Its Man Remix)
EXTD=
EXTT0=
EXTT1=
EXTT2=
EXTT3=
EXTT4=
EXTT5=
EXTT6=
EXTT7=
EXTT8=
EXTT9=
EXTT10=
EXTT11=
EXTT12=
PLAYORDER=
